<svg id="visual" viewBox="0 0 960 540" width="960" height="540" xmlns="http://www.w3.org/2000/svg" xmlns:xlink="http://www.w3.org/1999/xlink" version="1.1"><rect x="0" y="0" width="960" height="540" fill="#001220"></rect><defs><linearGradient id="grad1_0" x1="43.8%" y1="0%" x2="100%" y2="100%"><stop offset="14.444444444444446%" stop-color="#001220" stop-opacity="1"></stop><stop offset="85.55555555555554%" stop-color="#001220" stop-opacity="1"></stop></linearGradient></defs><defs><linearGradient id="grad2_0" x1="0%" y1="0%" x2="56.3%" y2="100%"><stop offset="14.444444444444446%" stop-color="#001220" stop-opacity="1"></stop><stop offset="85.55555555555554%" stop-color="#001220" stop-opacity="1"></stop></linearGradient></defs><g transform="translate(960, 0)"><path d="M0 486C-70.5 486.4 -141 486.9 -186 449C-230.9 411.1 -250.3 335 -285 285C-319.6 235 -369.5 211.1 -405.6 168C-441.6 124.9 -463.8 62.4 -486 0L0 0Z" fill="#FBAE3C"></path></g><g transform="translate(0, 540)"><path d="M0 -486C50 -446 100 -405.9 160.7 -388C221.5 -370.1 293 -374.4 343.7 -343.7C394.3 -312.9 424.1 -247.2 444.4 -184.1C464.6 -121 475.3 -60.5 486 0L0 0Z" fill="#FBAE3C"></path></g></svg>