<svg id="visual" viewBox="0 0 960 540" width="960" height="540" xmlns="http://www.w3.org/2000/svg" xmlns:xlink="http://www.w3.org/1999/xlink" version="1.1"><path d="M0 114L14.5 124C29 134 58 154 87.2 157.7C116.3 161.3 145.7 148.7 174.8 152.2C204 155.7 233 175.3 262 179C291 182.7 320 170.3 349 152.3C378 134.3 407 110.7 436.2 103.3C465.3 96 494.7 105 523.8 123C553 141 582 168 611 165.3C640 162.7 669 130.3 698 123.2C727 116 756 134 785.2 150.2C814.3 166.3 843.7 180.7 872.8 173.5C902 166.3 931 137.7 945.5 123.3L960 109L960 0L945.5 0C931 0 902 0 872.8 0C843.7 0 814.3 0 785.2 0C756 0 727 0 698 0C669 0 640 0 611 0C582 0 553 0 523.8 0C494.7 0 465.3 0 436.2 0C407 0 378 0 349 0C320 0 291 0 262 0C233 0 204 0 174.8 0C145.7 0 116.3 0 87.2 0C58 0 29 0 14.5 0L0 0Z" fill="#6198ff"></path><path d="M0 190L14.5 202.7C29 215.3 58 240.7 87.2 243.3C116.3 246 145.7 226 174.8 219.7C204 213.3 233 220.7 262 221.7C291 222.7 320 217.3 349 209.2C378 201 407 190 436.2 181.8C465.3 173.7 494.7 168.3 523.8 181C553 193.7 582 224.3 611 227C640 229.7 669 204.3 698 192.7C727 181 756 183 785.2 197.5C814.3 212 843.7 239 872.8 231.7C902 224.3 931 182.7 945.5 161.8L960 141L960 107L945.5 121.3C931 135.7 902 164.3 872.8 171.5C843.7 178.7 814.3 164.3 785.2 148.2C756 132 727 114 698 121.2C669 128.3 640 160.7 611 163.3C582 166 553 139 523.8 121C494.7 103 465.3 94 436.2 101.3C407 108.7 378 132.3 349 150.3C320 168.3 291 180.7 262 177C233 173.3 204 153.7 174.8 150.2C145.7 146.7 116.3 159.3 87.2 155.7C58 152 29 132 14.5 122L0 112Z" fill="#3c80ff"></path><path d="M0 260L14.5 274.5C29 289 58 318 87.2 327C116.3 336 145.7 325 174.8 316.8C204 308.7 233 303.3 262 292.5C291 281.7 320 265.3 349 259C378 252.7 407 256.3 436.2 258.2C465.3 260 494.7 260 523.8 275.3C553 290.7 582 321.3 611 316.8C640 312.3 669 272.7 698 257.3C727 242 756 251 785.2 266.3C814.3 281.7 843.7 303.3 872.8 299.8C902 296.3 931 267.7 945.5 253.3L960 239L960 139L945.5 159.8C931 180.7 902 222.3 872.8 229.7C843.7 237 814.3 210 785.2 195.5C756 181 727 179 698 190.7C669 202.3 640 227.7 611 225C582 222.3 553 191.7 523.8 179C494.7 166.3 465.3 171.7 436.2 179.8C407 188 378 199 349 207.2C320 215.3 291 220.7 262 219.7C233 218.7 204 211.3 174.8 217.7C145.7 224 116.3 244 87.2 241.3C58 238.7 29 213.3 14.5 200.7L0 188Z" fill="#0066ff"></path><path d="M0 428L14.5 437C29 446 58 464 87.2 462.2C116.3 460.3 145.7 438.7 174.8 427.8C204 417 233 417 262 418.8C291 420.7 320 424.3 349 432.3C378 440.3 407 452.7 436.2 452.7C465.3 452.7 494.7 440.3 523.8 444.8C553 449.3 582 470.7 611 467.8C640 465 669 438 698 421.8C727 405.7 756 400.3 785.2 399.5C814.3 398.7 843.7 402.3 872.8 412.3C902 422.3 931 438.7 945.5 446.8L960 455L960 237L945.5 251.3C931 265.7 902 294.3 872.8 297.8C843.7 301.3 814.3 279.7 785.2 264.3C756 249 727 240 698 255.3C669 270.7 640 310.3 611 314.8C582 319.3 553 288.7 523.8 273.3C494.7 258 465.3 258 436.2 256.2C407 254.3 378 250.7 349 257C320 263.3 291 279.7 262 290.5C233 301.3 204 306.7 174.8 314.8C145.7 323 116.3 334 87.2 325C58 316 29 287 14.5 272.5L0 258Z" fill="#0059dd"></path><path d="M0 541L14.5 541C29 541 58 541 87.2 541C116.3 541 145.7 541 174.8 541C204 541 233 541 262 541C291 541 320 541 349 541C378 541 407 541 436.2 541C465.3 541 494.7 541 523.8 541C553 541 582 541 611 541C640 541 669 541 698 541C727 541 756 541 785.2 541C814.3 541 843.7 541 872.8 541C902 541 931 541 945.5 541L960 541L960 453L945.5 444.8C931 436.7 902 420.3 872.8 410.3C843.7 400.3 814.3 396.7 785.2 397.5C756 398.3 727 403.7 698 419.8C669 436 640 463 611 465.8C582 468.7 553 447.3 523.8 442.8C494.7 438.3 465.3 450.7 436.2 450.7C407 450.7 378 438.3 349 430.3C320 422.3 291 418.7 262 416.8C233 415 204 415 174.8 425.8C145.7 436.7 116.3 458.3 87.2 460.2C58 462 29 444 14.5 435L0 426Z" fill="#004cbb"></path></svg>